<?xml version="1.0" encoding="UTF-8"?><svg id="Layer_1" xmlns="http://www.w3.org/2000/svg" viewBox="0 0 268 268"><path d="m134,10c33.1,0,64.3,12.9,87.7,36.3,23.4,23.4,36.3,54.6,36.3,87.7s-12.9,64.3-36.3,87.7c-23.4,23.4-54.6,36.3-87.7,36.3s-64.3-12.9-87.7-36.3c-23.4-23.4-36.3-54.6-36.3-87.7s12.9-64.3,36.3-87.7c23.4-23.4,54.6-36.3,87.7-36.3m0-10C60,0,0,60,0,134s60,134,134,134,134-60,134-134S208,0,134,0h0Z" fill="#373737"/><path d="m101,91.2v91.1c0,7.2,8,11.4,13.9,7.3l67.4-46.8c5.2-3.6,5.1-11.2-.2-14.7l-67.4-44.3c-5.9-3.9-13.8.4-13.8,7.4Z" fill="#373737"/></svg>