<?xml version="1.0" encoding="UTF-8"?><svg id="Layer_1" xmlns="http://www.w3.org/2000/svg" viewBox="0 0 347.9 286"><circle cx="104.6" cy="153.8" r="79.7" fill="#b0dcfb"/><path d="m104.6,77.1c42.3,0,76.7,34.4,76.7,76.7s-34.4,76.7-76.7,76.7S27.9,196.1,27.9,153.8s34.4-76.7,76.7-76.7m0-6c-45.7,0-82.7,37-82.7,82.7s37,82.7,82.7,82.7,82.7-37,82.7-82.7-37-82.7-82.7-82.7h0Z" fill="#e5f4ff"/><circle cx="189.7" cy="153.8" r="79.7" transform="translate(-44.4 84.3) rotate(-22.5)" fill="#7ec7fb"/><path d="m189.7,77.1c42.3,0,76.7,34.4,76.7,76.7s-34.4,76.7-76.7,76.7-76.7-34.4-76.7-76.7,34.4-76.7,76.7-76.7m0-6c-45.7,0-82.7,37-82.7,82.7s37,82.7,82.7,82.7,82.7-37,82.7-82.7-37-82.7-82.7-82.7h0Z" fill="#e5f4ff"/><circle cx="265.2" cy="153.8" r="79.7" transform="translate(21.6 340) rotate(-67.5)" fill="#39aafb"/><path d="m265.2,77.1c42.3,0,76.7,34.4,76.7,76.7s-34.4,76.7-76.7,76.7-76.7-34.4-76.7-76.7,34.4-76.7,76.7-76.7m0-6c-45.7,0-82.7,37-82.7,82.7s37,82.7,82.7,82.7,82.7-37,82.7-82.7-37-82.7-82.7-82.7h0Z" fill="#e5f4ff"/><path d="m268.9,110.2l8.5,26.2c.5,1.6,2,2.7,3.7,2.7h27.6c3.7,0,5.3,4.8,2.3,7l-22.3,16.2c-1.3,1-1.9,2.7-1.4,4.3l8.5,26.2c1.2,3.5-2.9,6.5-5.9,4.3l-22.3-16.2c-1.3-1-3.2-1-4.5,0l-22.3,16.2c-3,2.2-7.1-.8-5.9-4.3l8.5-26.2c.5-1.6,0-3.3-1.4-4.3l-22.3-16.2c-3-2.2-1.5-7,2.3-7h27.6c1.7,0,3.1-1.1,3.7-2.7l8.5-26.2c1.2-3.5,6.2-3.5,7.3,0Z" fill="#fff"/></svg>